<svg
  display="none"
  xmlns="http://www.w3.org/2000/svg"
>
  <symbol
    id="burger-icon-white"
    viewBox="0 0 24 24"
  >
    <g>
      <path
        d="M4 8h16v2H4zM4 14h16v2H4z"
        fill="#fff"
      />
    </g>
  </symbol>

  <symbol
    id="close-icon"
    viewBox="0 0 40 40"
  >
    <g>
      <path
        d="M22.357 20L30 27.643A1.667 1.667 0 1127.643 30l-9.293-9.293a1 1 0 010-1.414L27.643 10A1.667 1.667 0 0130 12.357L22.357 20z"
        fill="#fff"
      />
      <path
        d="M18.13 20l-7.642 7.643A1.667 1.667 0 1012.845 30l9.293-9.293a1 1 0 000-1.414L12.845 10a1.667 1.667 0 00-2.357 2.357L18.13 20z"
        fill="#fff"
      />
    </g>
  </symbol>

  <symbol id="not-found-icon">
    <g>
      <circle
        cx="43"
        cy="43"
        r="36.5"
        stroke="#D1D2D6"
        fill="#fff"
      />
      <path
        d="M69 69l19.5 19.5M58.328 55.959c-3.667-4.261-9.1-6.96-15.164-6.96-6.063 0-11.496 2.699-15.164 6.96" stroke="#D1D2D6"
        fill="#fff"
      />
      <circle
        cx="55.5"
        cy="33.5"
        r="1.5"
        fill="#D1D2D6"
      />
      <circle
        cx="30.5"
        cy="33.5"
        r="1.5"
        fill="#D1D2D6"
      />
    </g>
  </symbol>

  <symbol id="signout-icon-white">
    <g>
      <path
        fill-rule="evenodd"
        clip-rule="evenodd"
        d="M6 2H2v12h4v2H2a2 2 0 01-2-2V2a2 2 0 012-2h4v2zm7.586 7l-4.293 4.134 1.414 1.362 6.707-6.459-6.707-6.459L9.293 2.94l4.293 4.134H4V9h9.586z"
        fill="#fff"
      />
    </g>
  </symbol>

  <symbol id="arrow" >
    <path d="M4.516 7.548c0.436-0.446 1.043-0.481 1.576 0l3.908 3.747 3.908-3.747c0.533-0.481 1.141-0.446 1.574 0 0.436 0.445 0.408 1.197 0 1.615-0.406 0.418-4.695 4.502-4.695 4.502-0.217 0.223-0.502 0.335-0.787 0.335s-0.57-0.112-0.789-0.335c0 0-4.287-4.084-4.695-4.502s-0.436-1.17 0-1.615z" />
  </symbol>
</svg>
